<svg version="1.1" viewBox="0.0 0.0 3996.0 1184.0" fill="none" stroke="none" stroke-linecap="square" stroke-miterlimit="10" xmlns:xlink="http://www.w3.org/1999/xlink" xmlns="http://www.w3.org/2000/svg"><clipPath id="p.0"><path d="m0 0l3996.0 0l0 1184.0l-3996.0 0l0 -1184.0z" clip-rule="nonzero"/></clipPath><g clip-path="url(#p.0)"><path fill="#000000" fill-opacity="0.0" d="m0 0l3996.0 0l0 1184.0l-3996.0 0z" fill-rule="evenodd"/><path fill="#0b7285" d="m214.08794 44.755905l0 0c0 -24.718004 20.037888 -44.755905 44.755905 -44.755905l0 0l0 0c11.869995 0 23.253845 4.7153406 31.647186 13.108701c8.393372 8.393361 13.108704 19.777203 13.108704 31.647205l0 927.43304c0 24.718018 -20.037903 44.75592 -44.75589 44.75592l0 0l0 0c-24.718018 0 -44.755905 -20.037903 -44.755905 -44.75592z" fill-rule="evenodd"/><path fill="#0b7285" d="m685.16034 212.32097l0 0c0 -24.718002 20.037903 -44.755905 44.75586 -44.755905l0 0l0 0c11.870056 0 23.253845 4.7153473 31.647217 13.108704c8.393372 8.393356 13.108704 19.777191 13.108704 31.647202l0 927.43304c0 24.718018 -20.037903 44.75586 -44.75592 44.75586l0 0l0 0c-24.717957 0 -44.75586 -20.037842 -44.75586 -44.75586z" fill-rule="evenodd"/><path fill="#0b7285" d="m971.2128 713.0515l0 0c24.735413 0 44.787415 20.052002 44.787415 44.787415l0 0l0 0c0 11.878357 -4.718689 23.270203 -13.11792 31.669495c-8.399292 8.399231 -19.791138 13.11792 -31.669495 13.11792l-926.4252 0c-24.7354 0 -44.787403 -20.052002 -44.787403 -44.787415l0 0l0 0c0 -24.735413 20.052002 -44.787415 44.787403 -44.787415z" fill-rule="evenodd"/><path fill="#0b7285" d="m971.2128 394.4079l0 0c24.735413 0 44.787415 20.052002 44.787415 44.787415l0 0l0 0c0 11.878357 -4.718689 23.270203 -13.11792 31.669464c-8.399292 8.399261 -19.791138 13.11792 -31.669495 13.11792l-926.4252 0c-24.7354 0 -44.787403 -20.052002 -44.787403 -44.787384l0 0l0 0c0 -24.735413 20.052002 -44.787415 44.787403 -44.787415z" fill-rule="evenodd"/><path fill="#fab005" d="m153.76057 439.19092l0 0c0 -58.081207 47.04889 -105.165344 105.086624 -105.165344l0 0c27.870697 0 54.599884 11.079895 74.307465 30.802216c19.70755 19.72232 30.779144 46.471558 30.779144 74.36313l0 0c0 58.081238 -47.04889 105.165344 -105.08661 105.165344l0 0c-58.037735 0 -105.086624 -47.084106 -105.086624 -105.165344z" fill-rule="evenodd"/><path stroke="#0b7285" stroke-width="24.0" stroke-linejoin="round" stroke-linecap="butt" d="m153.76057 439.19092l0 0c0 -58.081207 47.04889 -105.165344 105.086624 -105.165344l0 0c27.870697 0 54.599884 11.079895 74.307465 30.802216c19.70755 19.72232 30.779144 46.471558 30.779144 74.36313l0 0c0 58.081238 -47.04889 105.165344 -105.08661 105.165344l0 0c-58.037735 0 -105.086624 -47.084106 -105.086624 -105.165344z" fill-rule="evenodd"/><path fill="#fab005" d="m624.83295 757.83453l0 0c0 -58.081238 47.04889 -105.165344 105.08661 -105.165344l0 0c27.870728 0 54.599915 11.079895 74.307495 30.802246c19.70758 19.72229 30.779175 46.471497 30.779175 74.3631l0 0c0 58.081238 -47.04889 105.165344 -105.08667 105.165344l0 0c-58.03772 0 -105.08661 -47.084106 -105.08661 -105.165344z" fill-rule="evenodd"/><path stroke="#0b7285" stroke-width="24.0" stroke-linejoin="round" stroke-linecap="butt" d="m624.83295 757.83453l0 0c0 -58.081238 47.04889 -105.165344 105.08661 -105.165344l0 0c27.870728 0 54.599915 11.079895 74.307495 30.802246c19.70758 19.72229 30.779175 46.471497 30.779175 74.3631l0 0c0 58.081238 -47.04889 105.165344 -105.08667 105.165344l0 0c-58.03772 0 -105.08661 -47.084106 -105.08661 -105.165344z" fill-rule="evenodd"/><path fill="#000000" fill-opacity="0.0" d="m1040.0 251.35695l3304.0 0l0 665.7953l-3304.0 0z" fill-rule="evenodd"/><path fill="#0b7285" d="m1141.7969 772.35693q-18.125 0 -32.796875 -8.796875q-14.671875 -8.796875 -23.203125 -23.46875q-8.53125 -14.671875 -8.53125 -32.265625l0 -346.12497l43.734375 0l0 101.328125l133.85938 0l0 43.734375l-133.85938 0l0 201.06247q0 8.53125 6.125 14.671875q6.140625 6.125 14.671875 6.125l113.0625 0l0 43.734375l-113.0625 0l0 0zm217.60205 0q-17.609375 0 -32.28125 -8.796875q-14.65625 -8.796875 -23.453125 -23.46875q-8.796875 -14.671875 -8.796875 -32.265625l0 -180.26562q0 -17.59372 8.796875 -32.265594q8.796875 -14.671875 23.453125 -23.46875q14.671875 -8.796875 32.28125 -8.796875l185.59375 0q18.140625 0 32.796875 8.796875q14.671875 8.796875 23.46875 23.46875q8.796875 14.671875 8.796875 32.265594l0 112.0l-271.45312 0l0 68.265625q0 8.53125 6.125 14.671875q6.140625 6.125 14.671875 6.125l250.65625 0l0 43.734375l-250.65625 0l0 0zm-20.796875 -176.53125l227.1875 0l0 -68.265625q0 -8.53125 -6.140625 -14.65625q-6.125 -6.1405945 -14.65625 -6.1405945l-185.59375 0q-8.53125 0 -14.671875 6.1405945q-6.125 6.125 -6.125 14.65625l0 68.265625zm323.1931 176.53125l0 0l0 -244.79688q0 -17.59372 8.796875 -32.265594q8.796875 -14.671875 23.46875 -23.46875q14.671875 -8.796875 32.265625 -8.796875l173.85938 0l0 43.734375l-173.85938 0q-8.53125 0 -14.671875 6.1405945q-6.125 6.125 -6.125 14.65625l0 244.79688l-43.734375 0zm273.06396 0l0 0l0 -244.79688q0 -17.59372 8.796875 -32.265594q8.796875 -14.671875 23.46875 -23.46875q14.671875 -8.796875 32.265625 -8.796875l173.85938 0l0 43.734375l-173.85938 0q-8.53125 0 -14.671875 6.1405945q-6.125 6.125 -6.125 14.65625l0 244.79688l-43.734375 0zm337.5952 0q-17.59375 0 -32.265625 -8.796875q-14.671875 -8.796875 -23.46875 -23.46875q-8.796875 -14.671875 -8.796875 -32.265625l0 -112.0l270.92188 0l0 -68.265625q0 -8.53125 -6.140625 -14.65625q-6.125 -6.1405945 -14.65625 -6.1405945l-250.125 0l0 -43.734375l250.125 0q18.140625 0 32.796875 8.796875q14.671875 8.796875 23.46875 23.46875q8.8125 14.671875 8.8125 32.265594l0 244.79688l-250.67188 0zm0 -43.734375l206.39062 0l0 -89.0625l-227.1875 0l0 68.265625q0 8.53125 6.125 14.671875q6.140625 6.125 14.671875 6.125zm356.8015 165.85938l0 0l0 -44.265625l193.0625 0q8.53125 0 14.65625 -6.140625q6.140625 -6.125 6.140625 -14.65625l0 -57.0625l-206.39062 0q-17.609375 0 -32.28125 -8.796875q-14.65625 -8.796875 -23.46875 -23.46875q-8.796875 -14.671875 -8.796875 -32.265625l0 -180.26562q0 -17.59372 8.796875 -32.265594q8.8125 -14.671875 23.46875 -23.46875q14.671875 -8.796875 32.28125 -8.796875l185.59375 0q18.125 0 32.796875 8.796875q14.671875 8.796875 23.203125 23.46875q8.53125 14.671875 8.53125 32.265594l0 301.85938q0 18.140625 -8.53125 32.796875q-8.53125 14.671875 -23.203125 23.46875q-14.671875 8.796875 -32.796875 8.796875l-193.0625 0zm7.46875 -165.85938l185.59375 0q8.53125 0 14.65625 -6.125q6.140625 -6.140625 6.140625 -14.671875l0 -180.26562q0 -8.53125 -6.140625 -14.65625q-6.125 -6.1405945 -14.65625 -6.1405945l-185.59375 0q-8.546875 0 -14.6875 6.1405945q-6.125 6.125 -6.125 14.65625l0 180.26562q0 8.53125 6.125 14.671875q6.140625 6.125 14.6875 6.125zm297.5913 43.734375l0 0l0 -244.79688q0 -17.59372 8.796875 -32.265594q8.796875 -14.671875 23.46875 -23.46875q14.671875 -8.796875 32.265625 -8.796875l173.85938 0l0 43.734375l-173.85938 0q-8.53125 0 -14.671875 6.1405945q-6.125 6.125 -6.125 14.65625l0 244.79688l-43.734375 0zm273.06396 0l0 0l0 -309.3281l43.734375 0l0 309.3281l-43.734375 0zm0 -366.93747l0 0l0 -43.71875l43.734375 0l0 43.71875l-43.734375 0zm160.52588 366.93747q-18.125 0 -32.796875 -8.796875q-14.671875 -8.796875 -23.46875 -23.46875q-8.796875 -14.671875 -8.796875 -32.265625l0 -180.26562q0 -17.59372 8.796875 -32.265594q8.796875 -14.671875 23.46875 -23.46875q14.671875 -8.796875 32.796875 -8.796875l206.40625 0l0 -101.328125l43.734375 0l0 410.65622l-250.14062 0l0 0zm0 -43.734375l185.60938 0q8.53125 0 14.65625 -6.125q6.140625 -6.140625 6.140625 -14.671875l0 -180.26562q0 -8.53125 -6.140625 -14.65625q-6.125 -6.1405945 -14.65625 -6.1405945l-185.60938 0q-8.53125 0 -14.671875 6.1405945q-6.125 6.125 -6.125 14.65625l0 180.26562q0 8.53125 6.125 14.671875q6.140625 6.125 14.671875 6.125zm368.5266 43.734375q-17.59375 0 -32.265625 -8.796875q-14.65625 -8.796875 -23.46875 -23.46875q-8.796875 -14.671875 -8.796875 -32.265625l0 -4.265625l43.734375 0l0 4.265625q0 8.53125 6.125 14.671875q6.140625 6.125 14.671875 6.125l185.60938 0q8.53125 0 14.65625 -6.125q6.140625 -6.140625 6.140625 -14.671875l0 -47.46875q0 -8.53125 -6.140625 -14.65625q-6.125 -6.140625 -14.65625 -6.140625l-185.60938 0q-17.59375 0 -32.265625 -8.796875q-14.65625 -8.8125 -23.46875 -23.46875q-8.796875 -14.671875 -8.796875 -32.265625l0 -47.46875q0 -17.59372 8.796875 -32.265594q8.8125 -14.671875 23.46875 -23.46875q14.671875 -8.796875 32.265625 -8.796875l185.60938 0q18.125 0 32.796875 8.796875q14.671875 8.796875 23.46875 23.46875q8.796875 14.671875 8.796875 32.265594l0 4.265625l-44.265625 0l0 -4.265625q0 -8.53125 -6.140625 -14.65625q-6.125 -6.1405945 -14.65625 -6.1405945l-185.60938 0q-8.53125 0 -14.671875 6.1405945q-6.125 6.125 -6.125 14.65625l0 47.46875q0 8.53125 6.125 14.671875q6.140625 6.125 14.671875 6.125l185.60938 0q18.125 0 32.796875 8.796875q14.671875 8.796875 23.46875 23.46875q8.796875 14.671875 8.796875 32.265625l0 47.46875q0 17.59375 -8.796875 32.265625q-8.796875 14.671875 -23.46875 23.46875q-14.671875 8.796875 -32.796875 8.796875l-185.60938 0l0 0z" fill-rule="nonzero"/></g></svg>